<svg width="50" height="34" viewBox="0 0 50 34" fill="none" xmlns="http://www.w3.org/2000/svg">
<path d="M41.7076 11.713C39.1518 4.86767 32.6395 0 25.0112 0C17.3828 0 10.8705 4.862 8.31473 11.7073C3.53237 12.9823 0 17.4023 0 22.6667C0 28.9283 4.99442 34 11.1551 34H38.8449C45.0056 34 50 28.9283 50 22.6667C50 17.4137 46.4788 12.9937 41.7076 11.713ZM43.7333 27.6363C43.0929 28.2904 42.3311 28.809 41.492 29.1621C40.6529 29.5152 39.7532 29.6958 38.8449 29.6933H11.1551C9.30803 29.6933 7.57255 28.9623 6.26674 27.6363C5.62252 26.9849 5.11181 26.2104 4.76412 25.3574C4.41643 24.5044 4.23866 23.5898 4.24107 22.6667C4.24107 21.08 4.74888 19.5897 5.70312 18.343C6.6376 17.1353 7.93145 16.2667 9.39174 15.8667L11.5067 15.3057L12.2824 13.2317C12.7623 11.9397 13.4319 10.7327 14.2746 9.639C15.1064 8.55501 16.0918 7.60212 17.1987 6.81133C19.4922 5.17367 22.1931 4.30667 25.0112 4.30667C27.8292 4.30667 30.5301 5.17367 32.8237 6.81133C33.9342 7.60467 34.9163 8.55667 35.7478 9.639C36.5904 10.7327 37.26 11.9453 37.74 13.2317L38.51 15.3L40.6194 15.8667C43.6496 16.6883 45.7589 19.482 45.7589 22.6667C45.7589 24.5423 45.0391 26.3103 43.7333 27.6363Z" fill="white"/>
</svg>
