<svg width="50" height="40" viewBox="0 0 50 40" fill="none" xmlns="http://www.w3.org/2000/svg">
<g clip-path="url(#clip0_21_6)">
<path d="M13.0501 27.58C13.4372 27.6967 13.7507 27.9315 13.9217 28.2328C14.0928 28.5342 14.1075 28.8775 13.9626 29.1875L9.27506 39.1875C9.2089 39.347 9.10319 39.4943 8.96425 39.6204C8.82532 39.7465 8.65602 39.8489 8.46649 39.9214C8.27695 39.994 8.07107 40.0352 7.86115 40.0426C7.65124 40.0501 7.44161 40.0236 7.2448 39.9647C7.04799 39.9058 6.86805 39.8158 6.71573 39.7C6.56341 39.5842 6.44186 39.445 6.35833 39.2908C6.2748 39.1365 6.23101 38.9704 6.22959 38.8023C6.22817 38.6342 6.26915 38.4676 6.35006 38.3125L11.0376 28.3125C11.1095 28.1586 11.2186 28.0176 11.3587 27.8975C11.4988 27.7774 11.6671 27.6806 11.854 27.6125C12.0409 27.5445 12.2428 27.5066 12.448 27.501C12.6532 27.4954 12.8578 27.5223 13.0501 27.58ZM22.4251 27.58C22.8122 27.6967 23.1257 27.9315 23.2967 28.2328C23.4678 28.5342 23.4825 28.8775 23.3376 29.1875L18.6501 39.1875C18.5839 39.347 18.4782 39.4943 18.3393 39.6204C18.2003 39.7465 18.031 39.8489 17.8415 39.9214C17.652 39.994 17.4461 40.0352 17.2362 40.0426C17.0262 40.0501 16.8166 40.0236 16.6198 39.9647C16.423 39.9058 16.243 39.8158 16.0907 39.7C15.9384 39.5842 15.8169 39.445 15.7333 39.2908C15.6498 39.1365 15.606 38.9704 15.6046 38.8023C15.6032 38.6342 15.6441 38.4676 15.7251 38.3125L20.4126 28.3125C20.4845 28.1586 20.5936 28.0176 20.7337 27.8975C20.8738 27.7774 21.0421 27.6806 21.229 27.6125C21.4159 27.5445 21.6178 27.5066 21.823 27.501C22.0282 27.4954 22.2328 27.5223 22.4251 27.58ZM31.8001 27.58C32.1872 27.6967 32.5007 27.9315 32.6717 28.2328C32.8428 28.5342 32.8575 28.8775 32.7126 29.1875L28.0251 39.1875C27.9589 39.347 27.8532 39.4943 27.7143 39.6204C27.5753 39.7465 27.406 39.8489 27.2165 39.9214C27.027 39.994 26.8211 40.0352 26.6112 40.0426C26.4012 40.0501 26.1916 40.0236 25.9948 39.9647C25.798 39.9058 25.618 39.8158 25.4657 39.7C25.3134 39.5842 25.1919 39.445 25.1083 39.2908C25.0248 39.1365 24.981 38.9704 24.9796 38.8023C24.9782 38.6342 25.0191 38.4676 25.1001 38.3125L29.7876 28.3125C29.8595 28.1586 29.9686 28.0176 30.1087 27.8975C30.2488 27.7774 30.4171 27.6806 30.604 27.6125C30.7909 27.5445 30.9928 27.5066 31.198 27.501C31.4032 27.4954 31.6078 27.5223 31.8001 27.58ZM41.1751 27.58C41.5622 27.6967 41.8757 27.9315 42.0467 28.2328C42.2178 28.5342 42.2325 28.8775 42.0876 29.1875L37.4001 39.1875C37.2444 39.486 36.9502 39.7245 36.5792 39.8531C36.2083 39.9817 35.7895 39.9902 35.4108 39.8769C35.0322 39.7637 34.7231 39.5374 34.5486 39.2457C34.3741 38.9539 34.3478 38.6194 34.4751 38.3125L39.1626 28.3125C39.2345 28.1586 39.3436 28.0176 39.4837 27.8975C39.6238 27.7774 39.7921 27.6806 39.979 27.6125C40.1659 27.5445 40.3678 27.5066 40.573 27.501C40.7782 27.4954 40.9828 27.5223 41.1751 27.58ZM41.8907 10.0675C41.2417 7.45039 39.5633 5.06802 37.1007 3.26869C34.6381 1.46936 31.5206 0.347454 28.2039 0.0670115C24.8873 -0.213431 21.5455 0.362295 18.6671 1.71001C15.7888 3.05773 13.5248 5.10676 12.2063 7.55749C10.7277 7.42122 9.22984 7.52782 7.8045 7.87076C6.37915 8.2137 5.0563 8.78576 3.91693 9.55193C2.77756 10.3181 1.84565 11.2622 1.17826 12.3266C0.510861 13.3909 0.122028 14.553 0.0355621 15.7417C-0.0509041 16.9304 0.166816 18.1207 0.675393 19.2398C1.18397 20.3589 1.9727 21.3831 2.9933 22.2498C4.01389 23.1165 5.24487 23.8075 6.61088 24.2804C7.97688 24.7533 9.44915 24.9981 10.9376 25H40.6251C43.0035 25.0022 45.2941 24.281 47.0328 22.9827C48.7716 21.6843 49.8284 19.9058 49.9893 18.0074C50.1502 16.109 49.4031 14.2326 47.8994 12.7583C46.3957 11.2841 44.2478 10.3222 41.8907 10.0675ZM26.5626 2.49999C29.6374 2.49948 32.6047 3.40566 34.8969 5.04527C37.1891 6.68488 38.6455 8.94287 38.9876 11.3875C39.03 11.6946 39.2132 11.9783 39.5018 12.1838C39.7903 12.3892 40.1638 12.5019 40.5501 12.5H40.6251C42.2827 12.5 43.8724 13.0268 45.0445 13.9645C46.2166 14.9021 46.8751 16.1739 46.8751 17.5C46.8751 18.8261 46.2166 20.0978 45.0445 21.0355C43.8724 21.9732 42.2827 22.5 40.6251 22.5H10.9376C9.83154 22.4995 8.73825 22.3112 7.72999 21.9475C6.72174 21.5838 5.82151 21.053 5.08886 20.3901C4.35621 19.7273 3.80783 18.9475 3.48001 18.1025C3.15219 17.2574 3.05239 16.3663 3.18721 15.4881C3.32204 14.6099 3.68842 13.7646 4.26211 13.0081C4.83581 12.2516 5.60374 11.6012 6.51511 11.0999C7.42649 10.5986 8.46053 10.2578 9.54884 10.1001C10.6371 9.94237 11.7549 9.9713 12.8282 10.185C13.2111 10.2614 13.616 10.2191 13.9614 10.0665C14.3069 9.91391 14.5675 9.66241 14.6907 9.36249C15.5166 7.36543 17.1082 5.62741 19.2395 4.39544C21.3708 3.16347 23.9332 2.50024 26.5626 2.49999Z" fill="white"/>
</g>
<defs>
<clipPath id="clip0_21_6">
<rect width="50" height="40" fill="white"/>
</clipPath>
</defs>
</svg>
