<svg width="400" height="400" viewBox="0 0 400 400" fill="none" xmlns="http://www.w3.org/2000/svg">
<path d="M364.062 123.831V94.5313C364.063 92.9921 363.761 91.4679 363.172 90.0458C362.583 88.6236 361.72 87.3314 360.632 86.2431C359.544 85.1547 358.251 84.2915 356.829 83.7029C355.407 83.1143 353.883 82.8117 352.344 82.8126H334.763V18.3625C334.763 16.8085 334.145 15.3182 333.046 14.2193C331.947 13.1205 330.457 12.5032 328.903 12.5032C327.349 12.5032 325.859 13.1205 324.76 14.2193C323.661 15.3182 323.044 16.8085 323.044 18.3625V56.6875C318.486 52.5711 312.924 49.728 306.918 48.4443C300.912 47.1605 294.674 47.4816 288.831 49.375C284.997 45.1619 280.328 41.7922 275.121 39.48C269.915 37.1678 264.284 35.9636 258.588 35.9438C250.818 35.9192 243.203 38.1182 236.642 42.2811C230.082 46.444 224.849 52.3971 221.563 59.4376C214.134 59.9212 207.167 63.2108 202.074 68.6397C196.98 74.0686 194.141 81.2308 194.131 88.675C194.14 96.4434 197.229 103.891 202.722 109.384C208.215 114.877 215.663 117.967 223.431 117.975H293.75V123.838C287.54 123.856 281.589 126.331 277.197 130.722C272.806 135.114 270.331 141.065 270.312 147.275V188.294H223.438C213.037 188.294 205.856 193.475 205.856 204.338V137.4C205.856 130.863 202.125 121.744 197.569 117.131L155.55 74.5563C153.444 72.4265 150.597 71.1936 147.603 71.1155C144.609 71.0375 141.701 72.1204 139.488 74.1376C131.531 68.3493 121.945 65.2313 112.106 65.2313C100.185 65.2565 88.7192 69.8121 80.0313 77.975C77.0987 77.2944 74.098 76.9505 71.0875 76.9501C63.1064 76.9694 55.303 79.3086 48.6273 83.6829C41.9516 88.0571 36.6916 94.2778 33.4875 101.588C27.4304 103.388 22.1162 107.095 18.3349 112.158C14.5536 117.221 12.5072 123.369 12.5 129.688C12.5083 137.456 15.5979 144.904 21.0909 150.397C26.5839 155.89 34.0317 158.979 41.8 158.988H88.675V211.725H35.9375C29.7271 211.743 23.7762 214.218 19.3847 218.61C14.9933 223.001 12.5181 228.952 12.5 235.163V387.5H217.581V223.244C217.581 220.131 219.7 217.581 222.275 217.581H224.619C227.194 217.581 229.3 220.131 229.3 223.244V387.5H246.875V223.244C246.875 220.131 248.994 217.581 251.569 217.581H253.912C256.487 217.581 258.594 220.131 258.594 223.244V387.5H387.5V147.269C387.484 141.058 385.009 135.106 380.617 130.714C376.225 126.322 370.273 123.848 364.062 123.831V123.831ZM68.1625 352.344C68.1592 353.898 67.5405 355.387 66.4418 356.486C65.3431 357.584 63.8538 358.203 62.3 358.206H44.725C43.1722 358.2 41.6849 357.58 40.5869 356.482C39.4888 355.384 38.8691 353.897 38.8625 352.344V340.625C38.8658 339.071 39.4845 337.582 40.5832 336.483C41.682 335.385 43.1712 334.766 44.725 334.763H62.3062C63.8601 334.766 65.3493 335.385 66.448 336.483C67.5467 337.582 68.1654 339.071 68.1687 340.625V352.344H68.1625ZM68.1625 305.469C68.1592 307.023 67.5405 308.512 66.4418 309.611C65.3431 310.709 63.8538 311.328 62.3 311.331H44.725C43.1722 311.325 41.6849 310.705 40.5869 309.607C39.4888 308.509 38.8691 307.022 38.8625 305.469V293.75C38.8658 292.196 39.4845 290.707 40.5832 289.608C41.682 288.51 43.1712 287.891 44.725 287.888H62.3062C63.8601 287.891 65.3493 288.51 66.448 289.608C67.5467 290.707 68.1654 292.196 68.1687 293.75V305.469H68.1625ZM68.1625 258.594C68.1592 260.148 67.5405 261.637 66.4418 262.736C65.3431 263.834 63.8538 264.453 62.3 264.456H44.725C43.1722 264.45 41.6849 263.83 40.5869 262.732C39.4888 261.634 38.8691 260.147 38.8625 258.594V246.875C38.8658 245.321 39.4845 243.832 40.5832 242.733C41.682 241.635 43.1712 241.016 44.725 241.013H62.3062C63.8601 241.016 65.3493 241.635 66.448 242.733C67.5467 243.832 68.1654 245.321 68.1687 246.875V258.594H68.1625ZM41.8 147.269C37.2183 147.147 32.8653 145.241 29.6679 141.957C26.4705 138.673 24.6813 134.271 24.6813 129.688C24.6813 125.104 26.4705 120.702 29.6679 117.418C32.8653 114.134 37.2183 112.228 41.8 112.106H42.4C43.7488 105.49 47.3423 99.5429 52.5723 95.2719C57.8024 91.0008 64.3476 88.6682 71.1 88.6688C75.6 88.6688 79.8125 89.7688 83.6187 91.5751C86.8673 87.0501 91.1465 83.3635 96.1024 80.8204C101.058 78.2772 106.548 76.9505 112.119 76.9501C119.125 76.9501 125.625 79.0188 131.106 82.5501L96.9688 117.131C92.4125 121.744 88.6813 130.863 88.6813 137.4V147.263H41.8V147.269ZM188.281 352.344C188.278 353.898 187.659 355.387 186.561 356.486C185.462 357.584 183.973 358.203 182.419 358.206H112.106C110.553 358.2 109.066 357.58 107.968 356.482C106.87 355.384 106.25 353.897 106.244 352.344V340.625C106.247 339.071 106.866 337.582 107.964 336.483C109.063 335.385 110.552 334.766 112.106 334.763H182.419C183.973 334.766 185.462 335.385 186.561 336.483C187.659 337.582 188.278 339.071 188.281 340.625V352.344ZM188.281 305.469C188.278 307.023 187.659 308.512 186.561 309.611C185.462 310.709 183.973 311.328 182.419 311.331H112.106C110.553 311.325 109.066 310.705 107.968 309.607C106.87 308.509 106.25 307.022 106.244 305.469V293.75C106.247 292.196 106.866 290.707 107.964 289.608C109.063 288.51 110.552 287.891 112.106 287.888H182.419C183.973 287.891 185.462 288.51 186.561 289.608C187.659 290.707 188.278 292.196 188.281 293.75V305.469ZM188.281 258.594C188.278 260.148 187.659 261.637 186.561 262.736C185.462 263.834 183.973 264.453 182.419 264.456H112.106C110.553 264.45 109.066 263.83 107.968 262.732C106.87 261.634 106.25 260.147 106.244 258.594V246.875C106.247 245.321 106.866 243.832 107.964 242.733C109.063 241.635 110.552 241.016 112.106 241.013H182.419C183.973 241.016 185.462 241.635 186.561 242.733C187.659 243.832 188.278 245.321 188.281 246.875V258.594ZM188.281 211.719C188.278 213.273 187.659 214.762 186.561 215.861C185.462 216.959 183.973 217.578 182.419 217.581H112.106C110.553 217.575 109.066 216.955 107.968 215.857C106.87 214.759 106.25 213.272 106.244 211.719V200C106.247 198.446 106.866 196.957 107.964 195.858C109.063 194.76 110.552 194.141 112.106 194.138H182.419C183.973 194.141 185.462 194.76 186.561 195.858C187.659 196.957 188.278 198.446 188.281 200V211.719ZM188.281 164.844C188.278 166.398 187.659 167.887 186.561 168.986C185.462 170.084 183.973 170.703 182.419 170.706H112.106C110.553 170.7 109.066 170.08 107.968 168.982C106.87 167.884 106.25 166.397 106.244 164.844V153.125C106.247 151.571 106.866 150.082 107.964 148.983C109.063 147.885 110.552 147.266 112.106 147.263H182.419C183.973 147.266 185.462 147.885 186.561 148.983C187.659 150.082 188.278 151.571 188.281 153.125V164.844ZM223.438 106.25C218.856 106.128 214.503 104.222 211.305 100.938C208.108 97.6544 206.319 93.2521 206.319 88.6688C206.319 84.0855 208.108 79.6832 211.305 76.3994C214.503 73.1156 218.856 71.2097 223.438 71.0875C225.681 71.0875 227.794 71.5438 229.769 72.3125C231.994 58.35 244.013 47.65 258.594 47.65C264.158 47.6577 269.604 49.2531 274.293 52.249C278.981 55.2449 282.718 59.5167 285.063 64.5626C289.178 61.223 294.313 59.3924 299.612 59.3751C305.829 59.3751 311.79 61.8444 316.185 66.2397C320.581 70.6351 323.05 76.5965 323.05 82.8126H305.469C302.361 82.8142 299.382 84.0494 297.184 86.2467C294.987 88.4441 293.752 91.4238 293.75 94.5313V106.25H223.438ZM320.119 364.063C320.115 365.616 319.497 367.106 318.398 368.204C317.299 369.303 315.81 369.922 314.256 369.925H296.675C295.122 369.918 293.635 369.299 292.537 368.201C291.439 367.103 290.819 365.615 290.812 364.063V352.344C290.816 350.79 291.435 349.301 292.533 348.202C293.632 347.103 295.121 346.485 296.675 346.481H314.256C315.81 346.485 317.299 347.103 318.398 348.202C319.497 349.301 320.115 350.79 320.119 352.344V364.063ZM320.119 323.05C320.115 324.604 319.497 326.093 318.398 327.192C317.299 328.291 315.81 328.909 314.256 328.913H296.675C295.122 328.906 293.635 328.286 292.537 327.188C291.439 326.09 290.819 324.603 290.812 323.05V311.331C290.816 309.777 291.435 308.288 292.533 307.19C293.632 306.091 295.121 305.472 296.675 305.469H314.256C315.81 305.472 317.299 306.091 318.398 307.19C319.497 308.288 320.115 309.777 320.119 311.331V323.05ZM320.119 282.031C320.115 283.585 319.497 285.074 318.398 286.173C317.299 287.272 315.81 287.89 314.256 287.894H296.675C295.122 287.887 293.635 287.267 292.537 286.169C291.439 285.071 290.819 283.584 290.812 282.031V270.313C290.816 268.759 291.435 267.27 292.533 266.171C293.632 265.072 295.121 264.453 296.675 264.45H314.256C315.81 264.453 317.299 265.072 318.398 266.171C319.497 267.27 320.115 268.759 320.119 270.313V282.031ZM320.119 241.019C320.115 242.573 319.497 244.062 318.398 245.161C317.299 246.259 315.81 246.878 314.256 246.881H296.675C295.122 246.875 293.635 246.255 292.537 245.157C291.439 244.059 290.819 242.572 290.812 241.019V229.3C290.816 227.746 291.435 226.257 292.533 225.158C293.632 224.06 295.121 223.441 296.675 223.438H314.256C315.81 223.441 317.299 224.06 318.398 225.158C319.497 226.257 320.115 227.746 320.119 229.3V241.019ZM320.119 200C320.115 201.554 319.497 203.043 318.398 204.142C317.299 205.241 315.81 205.859 314.256 205.863H296.675C295.122 205.856 293.635 205.236 292.537 204.138C291.439 203.04 290.819 201.553 290.812 200V188.281C290.816 186.727 291.435 185.238 292.533 184.14C293.632 183.041 295.121 182.422 296.675 182.419H314.256C315.81 182.422 317.299 183.041 318.398 184.14C319.497 185.238 320.115 186.727 320.119 188.281V200V200ZM320.119 158.988C320.115 160.541 319.497 162.031 318.398 163.129C317.299 164.228 315.81 164.847 314.256 164.85H296.675C295.122 164.843 293.635 164.224 292.537 163.126C291.439 162.028 290.819 160.54 290.812 158.988V147.269C290.816 145.715 291.435 144.226 292.533 143.127C293.632 142.028 295.121 141.41 296.675 141.406H314.256C315.81 141.41 317.299 142.028 318.398 143.127C319.497 144.226 320.115 145.715 320.119 147.269V158.988ZM366.994 364.063C366.99 365.616 366.372 367.106 365.273 368.204C364.174 369.303 362.685 369.922 361.131 369.925H343.55C341.997 369.918 340.51 369.299 339.412 368.201C338.314 367.103 337.694 365.615 337.687 364.063V352.344C337.691 350.79 338.31 349.301 339.408 348.202C340.507 347.103 341.996 346.485 343.55 346.481H361.131C362.685 346.485 364.174 347.103 365.273 348.202C366.372 349.301 366.99 350.79 366.994 352.344V364.063ZM366.994 323.05C366.99 324.604 366.372 326.093 365.273 327.192C364.174 328.291 362.685 328.909 361.131 328.913H343.55C341.997 328.906 340.51 328.286 339.412 327.188C338.314 326.09 337.694 324.603 337.687 323.05V311.331C337.691 309.777 338.31 308.288 339.408 307.19C340.507 306.091 341.996 305.472 343.55 305.469H361.131C362.685 305.472 364.174 306.091 365.273 307.19C366.372 308.288 366.99 309.777 366.994 311.331V323.05ZM366.994 282.031C366.99 283.585 366.372 285.074 365.273 286.173C364.174 287.272 362.685 287.89 361.131 287.894H343.55C341.997 287.887 340.51 287.267 339.412 286.169C338.314 285.071 337.694 283.584 337.687 282.031V270.313C337.691 268.759 338.31 267.27 339.408 266.171C340.507 265.072 341.996 264.453 343.55 264.45H361.131C362.685 264.453 364.174 265.072 365.273 266.171C366.372 267.27 366.99 268.759 366.994 270.313V282.031ZM366.994 241.019C366.99 242.573 366.372 244.062 365.273 245.161C364.174 246.259 362.685 246.878 361.131 246.881H343.55C341.997 246.875 340.51 246.255 339.412 245.157C338.314 244.059 337.694 242.572 337.687 241.019V229.3C337.691 227.746 338.31 226.257 339.408 225.158C340.507 224.06 341.996 223.441 343.55 223.438H361.131C362.685 223.441 364.174 224.06 365.273 225.158C366.372 226.257 366.99 227.746 366.994 229.3V241.019ZM366.994 200C366.99 201.554 366.372 203.043 365.273 204.142C364.174 205.241 362.685 205.859 361.131 205.863H343.55C341.997 205.856 340.51 205.236 339.412 204.138C338.314 203.04 337.694 201.553 337.687 200V188.281C337.691 186.727 338.31 185.238 339.408 184.14C340.507 183.041 341.996 182.422 343.55 182.419H361.131C362.685 182.422 364.174 183.041 365.273 184.14C366.372 185.238 366.99 186.727 366.994 188.281V200ZM366.994 158.988C366.99 160.541 366.372 162.031 365.273 163.129C364.174 164.228 362.685 164.847 361.131 164.85H343.55C341.997 164.843 340.51 164.224 339.412 163.126C338.314 162.028 337.694 160.54 337.687 158.988V147.269C337.691 145.715 338.31 144.226 339.408 143.127C340.507 142.028 341.996 141.41 343.55 141.406H361.131C362.685 141.41 364.174 142.028 365.273 143.127C366.372 144.226 366.99 145.715 366.994 147.269V158.988Z" fill="#8D8D8D"/>
</svg>
