<svg width="52" height="51" viewBox="0 0 52 51" fill="none" xmlns="http://www.w3.org/2000/svg">
<path fill-rule="evenodd" clip-rule="evenodd" d="M26 34C28.2985 34 30.5029 33.1045 32.1283 31.5104C33.7536 29.9163 34.6667 27.7543 34.6667 25.5C34.6667 23.2457 33.7536 21.0837 32.1283 19.4896C30.5029 17.8955 28.2985 17 26 17C23.7015 17 21.4971 17.8955 19.8717 19.4896C18.2464 21.0837 17.3333 23.2457 17.3333 25.5C17.3333 27.7543 18.2464 29.9163 19.8717 31.5104C21.4971 33.1045 23.7015 34 26 34ZM26 38.25C29.4478 38.25 32.7544 36.9067 35.1924 34.5156C37.6304 32.1245 39 28.8815 39 25.5C39 22.1185 37.6304 18.8755 35.1924 16.4844C32.7544 14.0933 29.4478 12.75 26 12.75C22.5522 12.75 19.2456 14.0933 16.8076 16.4844C14.3696 18.8755 13 22.1185 13 25.5C13 28.8815 14.3696 32.1245 16.8076 34.5156C19.2456 36.9067 22.5522 38.25 26 38.25ZM23.8333 0H28.1667V8.63175C26.7278 8.45572 25.2722 8.45572 23.8333 8.63175V0ZM15.3703 12.07L9.14767 5.967L6.084 8.97175L12.3067 15.0747C13.1966 13.9521 14.2257 12.9428 15.3703 12.07ZM8.801 23.375H0V27.625H8.801C8.62152 26.2138 8.62152 24.7862 8.801 23.375ZM12.3067 35.9253L6.084 42.0283L9.14767 45.033L15.3703 38.93C14.2257 38.0572 13.1966 37.0479 12.3067 35.9253ZM23.8333 42.3682V51H28.1667V42.3682C26.7278 42.5445 25.2722 42.5445 23.8333 42.3682ZM36.6297 38.93L42.8523 45.033L45.916 42.0283L39.6933 35.9253C38.8034 37.0479 37.7743 38.0572 36.6297 38.93ZM43.199 27.625H52V23.375H43.199C43.3787 24.7862 43.3787 26.2138 43.199 27.625ZM39.6933 15.0747L45.916 8.97175L42.8523 5.967L36.6297 12.07C37.7737 12.9412 38.8028 13.9527 39.6933 15.0747Z" fill="white"/>
</svg>
